<svg width="98" height="98" viewBox="0 0 98 98" fill="none" xmlns="http://www.w3.org/2000/svg">
<path d="M19.8927 83.0213C9.64582 83.0213 1.31177 74.6873 1.31177 64.4403C1.31177 54.1934 9.64582 45.8594 19.8927 45.8594C30.1397 45.8594 38.4737 54.1934 38.4737 64.4403C38.4737 74.7446 30.1416 83.0213 19.8927 83.0213Z" stroke="#00093C" stroke-width="2"/>
<path d="M67.0134 1.20514L67.0134 1.20516L67.0179 1.19765C67.0963 1.06692 67.2082 1.01562 67.3249 1.01562C67.4421 1.01562 67.5844 1.06998 67.6934 1.22551L88.9233 35.9169L88.9232 35.9169L88.9282 35.9249C89.0197 36.0712 89.0239 36.2563 88.9397 36.4193C88.8589 36.5758 88.7323 36.6496 88.5895 36.6496H67.3471H46.1047C45.9412 36.6496 45.8222 36.5702 45.7513 36.4354C45.6787 36.2972 45.6636 36.104 45.7765 35.9078L67.0134 1.20514Z" stroke="#00093C" stroke-width="2"/>
<path d="M38.3079 9.34467L38.2883 9.36226L38.2697 9.38085L29.844 17.8066C28.9194 18.7312 28.9194 20.3137 29.844 21.2382L38.2697 29.664C38.4132 29.8075 38.4132 30.1237 38.2697 30.2672L30.6154 37.9216C30.4719 38.0651 30.1557 38.0651 30.0121 37.9216L21.5864 29.4959C20.6618 28.5713 19.0793 28.5713 18.1547 29.4959L9.72899 37.9216C9.58549 38.0651 9.26927 38.0651 9.12577 37.9216L1.4714 30.2672C1.32789 30.1237 1.32789 29.8075 1.4714 29.664L9.89714 21.2382C10.8217 20.3137 10.8217 18.7312 9.89714 17.8066L1.4714 9.38085C1.32789 9.23735 1.32789 8.92113 1.4714 8.77763L9.12577 1.12325C9.26927 0.979749 9.58549 0.97975 9.72899 1.12325L18.1547 9.549C19.0793 10.4736 20.6618 10.4736 21.5864 9.549L30.0121 1.12325C30.1557 0.979749 30.4719 0.97975 30.6154 1.12325L38.2697 8.77763C38.3868 8.89472 38.4219 9.0143 38.4219 9.10149C38.4219 9.18557 38.3908 9.27004 38.3079 9.34467Z" stroke="#00093C" stroke-width="2"/>
<path d="M71.1957 69.8608L67.4488 63.06M67.4488 63.06C67.4488 63.06 65.1651 58.9151 63.7019 56.2592C63.2335 55.4091 62.124 55.2993 61.0747 55.4904C60.3327 55.6255 59.8948 55.8667 59.3842 56.4217C58.6621 57.2067 58.1625 58.2029 58.6305 59.0533C58.8601 59.4704 66.5927 73.505 67.9978 76.0553C69.2911 78.4028 61.8439 74.2545 61.4298 74.1332C60.1167 73.7485 57.5806 75.1458 58.9857 77.6961C59.2724 78.2165 74.0121 88.5859 78.045 91.4171C78.6694 91.8555 79.479 91.8926 80.1472 91.5245L92.9803 84.4541C93.7472 84.0316 94.1497 83.1607 93.9602 82.3059C93.4486 79.9985 92.3648 75.3984 91.1853 72.1453C89.635 67.8698 86.8785 62.3285 86.4097 61.4787C85.0896 59.0853 79.4649 60.8723 79.4649 60.8723M67.4488 63.06C67.4488 63.06 69.3215 61.2541 70.8297 61.1973C71.8961 61.1572 73.4569 61.9662 73.4569 61.9662M73.4569 61.9662L76.267 67.0668M73.4569 61.9662C73.4569 61.9662 73.7426 58.4842 78.5286 59.1718C78.704 59.197 79.4649 60.8723 79.4649 60.8723M82.2751 65.9729L79.4649 60.8723" stroke="#00093C" stroke-width="2"/>
</svg>
