<svg width="100" height="71" viewBox="0 0 100 71" fill="none" xmlns="http://www.w3.org/2000/svg">
<path d="M16.4671 70.6471C7.38524 70.6471 0 63.2618 0 54.18C0 45.0981 7.38524 37.7129 16.4671 37.7129C25.549 37.7129 32.9342 45.0981 32.9342 54.18C32.9342 63.3117 25.549 70.6471 16.4671 70.6471Z" fill="#00093C"/>
<path d="M16.4671 70.6471C7.38524 70.6471 0 63.2618 0 54.18C0 45.0981 7.38524 37.7129 16.4671 37.7129C25.549 37.7129 32.9342 45.0981 32.9342 54.18C32.9342 63.3117 25.549 70.6471 16.4671 70.6471Z" fill="#00093C"/>
<path d="M55.3895 1.83286L37.5251 31.0245C37.0261 31.8728 37.575 32.9207 38.5232 32.9207H56.3875H74.2518C75.1999 32.9207 75.7488 31.8229 75.2498 31.0245L57.3855 1.83286C56.8865 1.08436 55.8386 1.08436 55.3895 1.83286Z" fill="#00093C"/>
<path d="M32.5847 6.77396L26.1475 0.336827C25.6984 -0.112276 24.9 -0.112276 24.4509 0.336827L17.3651 7.42267C16.916 7.87177 16.1176 7.87177 15.6685 7.42267L8.58263 0.336827C8.13353 -0.112276 7.33513 -0.112276 6.88602 0.336827L0.448888 6.77396C-0.000215136 7.22307 -0.000215136 8.02147 0.448888 8.47058L7.53472 15.5564C7.98382 16.0055 7.98382 16.8039 7.53472 17.253L0.448888 24.3389C-0.000215136 24.788 -0.000215136 25.5864 0.448888 26.0355L6.88602 32.4726C7.33513 32.9217 8.13353 32.9217 8.58263 32.4726L15.6685 25.3868C16.1176 24.9377 16.916 24.9377 17.3651 25.3868L24.4509 32.4726C24.9 32.9217 25.6984 32.9217 26.1475 32.4726L32.5847 26.0355C33.0338 25.5864 33.0338 24.788 32.5847 24.3389L25.4988 17.253C25.0497 16.8039 25.0497 16.0055 25.4988 15.5564L32.5847 8.47058C33.0837 8.02147 33.0837 7.27297 32.5847 6.77396Z" fill="#00093C"/>
<path d="M40.6685 49.0897V51.1855H44.3112V52.6326H40.6685V55.4769H38.872V47.6426H44.7603V49.0897H40.6685Z" fill="black"/>
<path d="M47.2058 54.6785C46.607 54.0797 46.2577 53.1815 46.2577 52.0338V47.6426H48.0541V51.934C48.0541 53.3312 48.6529 54.0298 49.8006 54.0298C50.3495 54.0298 50.7986 53.8801 51.098 53.5308C51.3974 53.1815 51.5471 52.6825 51.5471 51.934V47.6426H53.3435V52.0338C53.3435 53.1815 53.0441 54.0797 52.3954 54.6785C51.7966 55.2773 50.8984 55.6266 49.8006 55.6266C48.7028 55.6266 47.8046 55.2773 47.2058 54.6785Z" fill="black"/>
<path d="M56.9361 49.1396H54.441V47.6426H61.2275V49.1396H58.7325V55.4769H56.9361V49.1396Z" fill="black"/>
<path d="M63.2733 54.6785C62.6745 54.0797 62.3252 53.1815 62.3252 52.0338V47.6426H64.1216V51.934C64.1216 53.3312 64.7204 54.0298 65.8681 54.0298C66.417 54.0298 66.8661 53.8801 67.1655 53.5308C67.4649 53.1815 67.6146 52.6825 67.6146 51.934V47.6426H69.411V52.0338C69.411 53.1815 69.1116 54.0797 68.4629 54.6785C67.8641 55.2773 66.9659 55.6266 65.8681 55.6266C64.7703 55.6266 63.922 55.2773 63.2733 54.6785Z" fill="black"/>
<path d="M76.497 55.4759L75 53.2802H74.9002H73.3034V55.4759H71.507V47.6914H74.9002C75.5988 47.6914 76.1976 47.7912 76.6966 48.0407C77.1957 48.2902 77.5948 48.5896 77.8943 49.0387C78.1438 49.4379 78.2935 49.9868 78.2935 50.5357C78.2935 51.1345 78.1438 51.6335 77.8943 52.0327C77.5948 52.4319 77.1957 52.7812 76.6966 52.9808L78.4432 55.4759H76.497ZM76.0479 49.4878C75.7485 49.2383 75.3493 49.1385 74.8004 49.1385H73.3034V51.883H74.8004C75.3493 51.883 75.7485 51.7832 76.0479 51.5337C76.3474 51.2842 76.4471 50.9848 76.4471 50.5357C76.497 50.0367 76.3474 49.7373 76.0479 49.4878Z" fill="black"/>
<path d="M86.1279 54.0298V55.4769H80.09V47.6426H85.9782V49.0897H81.8864V50.7863H85.4792V52.2334H81.8864V54.0298H86.1279Z" fill="black"/>
<path d="M44.0119 68.2519H40.3692L39.6706 69.9485H37.8243L41.3173 62.1641H43.1137L46.6068 69.9485H44.7105L44.0119 68.2519ZM43.463 66.9046L42.2155 63.9106L40.968 66.9046H43.463Z" fill="black"/>
<path d="M49.2017 69.5477C48.553 69.1984 48.054 68.6994 47.7047 68.1006C47.3554 67.5018 47.1558 66.8032 47.1558 66.0048C47.1558 65.2563 47.3554 64.5577 47.7047 63.909C48.054 63.3102 48.6029 62.8112 49.2017 62.4619C49.8504 62.1126 50.549 61.9629 51.3474 61.9629C52.046 61.9629 52.6448 62.0627 53.1937 62.3122C53.7426 62.5617 54.1917 62.911 54.5909 63.3601L53.4432 64.408C52.8943 63.8092 52.2456 63.5098 51.4971 63.5098C50.9981 63.5098 50.5989 63.6096 50.1997 63.8092C49.8005 64.0088 49.5011 64.3082 49.3015 64.7074C49.1019 65.1066 49.0021 65.5058 49.0021 66.0048C49.0021 66.5038 49.1019 66.903 49.3015 67.3022C49.5011 67.7014 49.8005 68.0008 50.1997 68.2004C50.5989 68.4 50.9981 68.4998 51.4971 68.4998C52.2955 68.4998 52.9442 68.2004 53.4432 67.5517L54.5909 68.5996C54.2416 69.0487 53.7426 69.398 53.1937 69.6475C52.6448 69.897 52.046 69.9968 51.3474 69.9968C50.5989 70.0467 49.8504 69.897 49.2017 69.5477Z" fill="black"/>
<path d="M61.1277 68.2519H57.485L56.7864 69.9485H54.94L58.4331 62.1641H60.2295L63.7225 69.9485H61.8263L61.1277 68.2519ZM60.5788 66.9046L59.3313 63.9106L58.0838 66.9046H60.5788Z" fill="black"/>
<path d="M64.8704 62.1133H68.4133C69.2616 62.1133 70.0101 62.263 70.6588 62.6123C71.3075 62.9117 71.8065 63.4107 72.1558 63.9596C72.5051 64.5584 72.7047 65.2071 72.7047 66.0055C72.7047 66.8039 72.5051 67.4526 72.1558 68.0514C71.8065 68.6502 71.3075 69.0993 70.6588 69.3987C70.0101 69.6981 69.2616 69.8977 68.4133 69.8977H64.8704V62.1133ZM68.3135 68.4506C69.1119 68.4506 69.7107 68.251 70.1598 67.8019C70.6089 67.3528 70.8584 66.754 70.8584 66.0554C70.8584 65.3069 70.6089 64.7081 70.1598 64.3089C69.7107 63.8598 69.062 63.6602 68.3135 63.6602H66.6668V68.5005H68.3135V68.4506Z" fill="black"/>
<path d="M80.4391 68.5005V69.9476H74.4012V62.1133H80.2894V63.5604H76.1976V65.257H79.8403V66.6542H76.1976V68.5005H80.4391Z" fill="black"/>
<path d="M89.3214 69.9476V65.257L87.026 69.0993H86.2276L83.9322 65.3568V69.9476H82.2356V62.1133H83.7326L86.6268 66.9536L89.521 62.1133H91.0181V69.9476H89.3214Z" fill="black"/>
<path d="M96.9561 67.1532V69.9476H95.1597V67.1532L92.1158 62.1133H94.0619L96.1577 65.6063L98.2036 62.1133H100L96.9561 67.1532Z" fill="black"/>
</svg>
