<svg width="41" height="41" viewBox="0 0 41 41" fill="none" xmlns="http://www.w3.org/2000/svg">
<g filter="url(#filter0_d_163_6904)">
<path d="M36.4726 6.77396L30.0355 0.336827C29.5864 -0.112276 28.788 -0.112276 28.3389 0.336827L21.253 7.42267C20.8039 7.87177 20.0055 7.87177 19.5564 7.42267L12.4706 0.336827C12.0215 -0.112276 11.2231 -0.112276 10.774 0.336827L4.33683 6.77396C3.88772 7.22307 3.88772 8.02147 4.33683 8.47058L11.4227 15.5564C11.8718 16.0055 11.8718 16.8039 11.4227 17.253L4.33683 24.3389C3.88772 24.788 3.88772 25.5864 4.33683 26.0355L10.774 32.4726C11.2231 32.9217 12.0215 32.9217 12.4706 32.4726L19.5564 25.3868C20.0055 24.9377 20.8039 24.9377 21.253 25.3868L28.3389 32.4726C28.788 32.9217 29.5864 32.9217 30.0355 32.4726L36.4726 26.0355C36.9217 25.5864 36.9217 24.788 36.4726 24.3389L29.3868 17.253C28.9377 16.8039 28.9377 16.0055 29.3868 15.5564L36.4726 8.47058C36.9716 8.02147 36.9716 7.27297 36.4726 6.77396Z" fill="#00093C"/>
</g>
<defs>
<filter id="filter0_d_163_6904" x="0" y="0" width="40.8467" height="40.8094" filterUnits="userSpaceOnUse" color-interpolation-filters="sRGB">
<feFlood flood-opacity="0" result="BackgroundImageFix"/>
<feColorMatrix in="SourceAlpha" type="matrix" values="0 0 0 0 0 0 0 0 0 0 0 0 0 0 0 0 0 0 127 0" result="hardAlpha"/>
<feOffset dy="4"/>
<feGaussianBlur stdDeviation="2"/>
<feComposite in2="hardAlpha" operator="out"/>
<feColorMatrix type="matrix" values="0 0 0 0 0 0 0 0 0 0 0 0 0 0 0 0 0 0 0.25 0"/>
<feBlend mode="normal" in2="BackgroundImageFix" result="effect1_dropShadow_163_6904"/>
<feBlend mode="normal" in="SourceGraphic" in2="effect1_dropShadow_163_6904" result="shape"/>
</filter>
</defs>
</svg>
